<svg xmlns="http://www.w3.org/2000/svg" viewBox="0 7.650000095367432 283.70001220703125 157.85000610351562" data-asc="0.878" width="283.70001220703125" height="157.85000610351562"><defs/><g><g fill="#ffffff"><g transform="translate(0, 0)"><path d="M26.25 43.90L24.80 39.05L12.75 39.05L11.30 43.90L0 43.90L12.55 9.50L25.40 9.50L37.95 43.90L26.25 43.90M15.05 31.35L22.50 31.35L18.90 19.10L18.70 19.10L15.05 31.35ZM59.60 16.90Q64.20 16.90 66.50 19.45Q68.80 22.00 68.80 26.80L68.80 43.90L58.85 43.90L58.85 28Q58.85 26.30 57.98 25.27Q57.10 24.25 55.50 24.25Q53.65 24.25 52.50 25.45Q51.35 26.65 51.35 28.40L51.35 43.90L41.40 43.90L41.40 17.50L49.55 17.50L50.20 21.50Q51.75 19.40 54.28 18.15Q56.80 16.90 59.60 16.90ZM92.35 17.50L92.35 24.25L86.75 24.25L86.75 34.30Q86.75 36.10 87.35 36.92Q87.95 37.75 89.55 37.75L92.35 37.75L92.35 43.60Q91.15 44 89.25 44.25Q87.35 44.50 85.95 44.50Q81.55 44.50 79.17 42.90Q76.80 41.30 76.80 37.45L76.80 24.25L73.10 24.25L73.10 17.50L77.20 17.50L79.35 9.50L86.75 9.50L86.75 17.50L92.35 17.50ZM97.30 14.40L97.30 7.65L107.25 7.65L107.25 14.40L97.30 14.40M97.30 43.90L97.30 17.50L107.25 17.50L107.25 43.90L97.30 43.90Z"/></g><g transform="translate(0, 60.5)"><path d="M17.85 8.90Q25.50 8.90 29.95 12.72Q34.40 16.55 34.40 23.65L23.85 23.65Q23.85 20.65 22.28 18.90Q20.70 17.15 17.80 17.15Q14.45 17.15 12.88 19.25Q11.30 21.35 11.30 25.10L11.30 28.30Q11.30 32 12.88 34.13Q14.45 36.25 17.70 36.25Q20.90 36.25 22.55 34.60Q24.20 32.95 24.20 29.95L34.40 29.95Q34.40 37 30.08 40.75Q25.75 44.50 17.85 44.50Q9.05 44.50 4.53 40Q0 35.50 0 26.70Q0 17.90 4.53 13.40Q9.05 8.90 17.85 8.90ZM53.30 16.90Q60.25 16.90 64.23 20.42Q68.20 23.95 68.20 30.70Q68.20 37.45 64.23 40.98Q60.25 44.50 53.30 44.50Q46.35 44.50 42.40 41Q38.45 37.50 38.45 30.70Q38.45 23.90 42.40 20.40Q46.35 16.90 53.30 16.90M53.30 23.65Q48.40 23.65 48.40 29.30L48.40 32.15Q48.40 37.75 53.30 37.75Q58.25 37.75 58.25 32.15L58.25 29.30Q58.25 23.65 53.30 23.65ZM89.05 16.85Q90.20 16.85 91.10 17.12Q92 17.40 92 17.45L92 25.80L88.80 25.80Q85.70 25.80 84.33 27.40Q82.95 29 82.95 32.15L82.95 43.90L73 43.90L73 17.50L81.15 17.50L81.80 21.50Q82.70 19.20 84.65 18.02Q86.60 16.85 89.05 16.85ZM111.25 16.85Q112.40 16.85 113.30 17.12Q114.20 17.40 114.20 17.45L114.20 25.80L111 25.80Q107.90 25.80 106.53 27.40Q105.15 29 105.15 32.15L105.15 43.90L95.20 43.90L95.20 17.50L103.35 17.50L104 21.50Q104.90 19.20 106.85 18.02Q108.80 16.85 111.25 16.85ZM136.55 43.90L135.90 39.90Q134.35 42.05 131.83 43.27Q129.30 44.50 126.50 44.50Q121.90 44.50 119.60 41.95Q117.30 39.40 117.30 34.60L117.30 17.50L127.25 17.50L127.25 33.40Q127.25 35.10 128.13 36.13Q129 37.15 130.60 37.15Q132.45 37.15 133.60 35.95Q134.75 34.75 134.75 33L134.75 17.50L144.70 17.50L144.70 43.90L136.55 43.90ZM168.15 16.90Q173.50 16.90 176.40 20.40Q179.30 23.90 179.30 30.75Q179.30 37.55 176.40 41.02Q173.50 44.50 168.15 44.50Q163.55 44.50 160.75 41.50L160.75 53.75L150.80 53.75L150.80 17.50L158.90 17.50L159.75 21.25Q162.65 16.90 168.15 16.90M165.05 24.25Q162.85 24.25 161.75 25.80Q160.65 27.35 160.65 29.85L160.65 31.50Q160.65 34 161.75 35.57Q162.85 37.15 165.05 37.15Q169.35 37.15 169.35 32L169.35 29.35Q169.35 24.25 165.05 24.25ZM201.70 17.50L201.70 24.25L196.10 24.25L196.10 34.30Q196.10 36.10 196.70 36.92Q197.30 37.75 198.90 37.75L201.70 37.75L201.70 43.60Q200.50 44 198.60 44.25Q196.70 44.50 195.30 44.50Q190.90 44.50 188.53 42.90Q186.15 41.30 186.15 37.45L186.15 24.25L182.45 24.25L182.45 17.50L186.55 17.50L188.70 9.50L196.10 9.50L196.10 17.50L201.70 17.50ZM206.65 14.40L206.65 7.65L216.60 7.65L216.60 14.40L206.65 14.40M206.65 43.90L206.65 17.50L216.60 17.50L216.60 43.90L206.65 43.90ZM236.60 16.90Q243.55 16.90 247.53 20.42Q251.50 23.95 251.50 30.70Q251.50 37.45 247.53 40.98Q243.55 44.50 236.60 44.50Q229.65 44.50 225.70 41Q221.75 37.50 221.75 30.70Q221.75 23.90 225.70 20.40Q229.65 16.90 236.60 16.90M236.60 23.65Q231.70 23.65 231.70 29.30L231.70 32.15Q231.70 37.75 236.60 37.75Q241.55 37.75 241.55 32.15L241.55 29.30Q241.55 23.65 236.60 23.65ZM274.50 16.90Q279.10 16.90 281.40 19.45Q283.70 22.00 283.70 26.80L283.70 43.90L273.75 43.90L273.75 28Q273.75 26.30 272.88 25.27Q272 24.25 270.40 24.25Q268.55 24.25 267.40 25.45Q266.25 26.65 266.25 28.40L266.25 43.90L256.30 43.90L256.30 17.50L264.45 17.50L265.10 21.50Q266.65 19.40 269.18 18.15Q271.70 16.90 274.50 16.90Z"/></g><g transform="translate(0, 121)"><path d="M22.90 9.50Q25.50 9.50 27.68 10.57Q29.85 11.65 31.13 13.60Q32.40 15.55 32.40 17.95Q32.40 24.30 26.65 25.95L26.65 26.15Q33.20 27.65 33.20 34.75Q33.20 37.45 31.88 39.52Q30.55 41.60 28.25 42.75Q25.95 43.90 23.20 43.90L0 43.90L0 9.50L22.90 9.50M11.05 22.90L18.65 22.90Q19.75 22.90 20.48 22.12Q21.20 21.35 21.20 20.20L21.20 19.70Q21.20 18.60 20.45 17.82Q19.70 17.05 18.65 17.05L11.05 17.05L11.05 22.90M11.05 35.90L19.45 35.90Q20.55 35.90 21.28 35.13Q22.00 34.35 22.00 33.20L22.00 32.70Q22.00 31.55 21.28 30.77Q20.55 30 19.45 30L11.05 30L11.05 35.90ZM57.35 43.90L56.70 39.90Q55.15 42.05 52.63 43.27Q50.10 44.50 47.30 44.50Q42.70 44.50 40.40 41.95Q38.10 39.40 38.10 34.60L38.10 17.50L48.05 17.50L48.05 33.40Q48.05 35.10 48.93 36.13Q49.80 37.15 51.40 37.15Q53.25 37.15 54.40 35.95Q55.55 34.75 55.55 33L55.55 17.50L65.50 17.50L65.50 43.90L57.35 43.90ZM87.60 16.85Q88.75 16.85 89.65 17.12Q90.55 17.40 90.55 17.45L90.55 25.80L87.35 25.80Q84.25 25.80 82.88 27.40Q81.50 29 81.50 32.15L81.50 43.90L71.55 43.90L71.55 17.50L79.70 17.50L80.35 21.50Q81.25 19.20 83.20 18.02Q85.15 16.85 87.60 16.85ZM107.40 16.90Q114.65 16.90 118.48 20.30Q122.30 23.70 122.30 30.70L122.30 32.40L102.50 32.40Q102.50 35.25 103.78 36.70Q105.05 38.15 107.80 38.15Q110.30 38.15 111.48 37.10Q112.65 36.05 112.65 34.30L122.30 34.30Q122.30 39.10 118.65 41.80Q115.00 44.50 108.00 44.50Q100.65 44.50 96.60 41.07Q92.55 37.65 92.55 30.70Q92.55 23.90 96.50 20.40Q100.45 16.90 107.40 16.90M107.80 23.25Q103.10 23.25 102.55 27.70L112.25 27.70Q112.25 25.65 111.08 24.45Q109.90 23.25 107.80 23.25ZM140.15 16.90Q146.20 16.90 150.00 18.92Q153.80 20.95 153.80 25.50L153.80 35.80Q153.80 36.65 154.20 37.20Q154.60 37.75 155.40 37.75L157.20 37.75L157.20 43.50Q157.05 43.60 156.43 43.82Q155.80 44.05 154.65 44.27Q153.50 44.50 152.00 44.50Q149.10 44.50 147.23 43.63Q145.35 42.75 144.65 41.20Q142.75 42.70 140.40 43.60Q138.05 44.50 134.90 44.50Q125.60 44.50 125.60 37.10Q125.60 33.25 127.68 31.22Q129.75 29.20 133.65 28.45Q137.55 27.70 143.85 27.70L143.85 26.40Q143.85 24.85 142.78 24.05Q141.70 23.25 140.00 23.25Q138.45 23.25 137.33 23.80Q136.20 24.35 136.20 25.55L136.20 25.75L126.40 25.75Q126.35 25.50 126.35 25.05Q126.35 21.30 129.93 19.10Q133.50 16.90 140.15 16.90M143.85 32.40Q139.60 32.40 137.58 33.32Q135.55 34.25 135.55 35.80Q135.55 38.30 138.95 38.30Q140.90 38.30 142.38 37.25Q143.85 36.20 143.85 34.65L143.85 32.40ZM179.60 43.90L178.95 39.90Q177.40 42.05 174.88 43.27Q172.35 44.50 169.55 44.50Q164.95 44.50 162.65 41.95Q160.35 39.40 160.35 34.60L160.35 17.50L170.30 17.50L170.30 33.40Q170.30 35.10 171.18 36.13Q172.05 37.15 173.65 37.15Q175.50 37.15 176.65 35.95Q177.80 34.75 177.80 33L177.80 17.50L187.75 17.50L187.75 43.90L179.60 43.90Z"/></g></g></g></svg>