<svg xmlns="http://www.w3.org/2000/svg" viewBox="0 7.650000095367432 262.5 167.10000610351562" data-asc="0.878" width="262.5" height="167.10000610351562"><defs/><g><g fill="#ffffff"><g transform="translate(0, 0)"><path d="M26.25 43.90L24.80 39.05L12.75 39.05L11.30 43.90L0 43.90L12.55 9.50L25.40 9.50L37.95 43.90L26.25 43.90M15.05 31.35L22.50 31.35L18.90 19.10L18.70 19.10L15.05 31.35ZM59.60 16.90Q64.20 16.90 66.50 19.45Q68.80 22.00 68.80 26.80L68.80 43.90L58.85 43.90L58.85 28Q58.85 26.30 57.98 25.27Q57.10 24.25 55.50 24.25Q53.65 24.25 52.50 25.45Q51.35 26.65 51.35 28.40L51.35 43.90L41.40 43.90L41.40 17.50L49.55 17.50L50.20 21.50Q51.75 19.40 54.28 18.15Q56.80 16.90 59.60 16.90ZM92.35 17.50L92.35 24.25L86.75 24.25L86.75 34.30Q86.75 36.10 87.35 36.92Q87.95 37.75 89.55 37.75L92.35 37.75L92.35 43.60Q91.15 44 89.25 44.25Q87.35 44.50 85.95 44.50Q81.55 44.50 79.17 42.90Q76.80 41.30 76.80 37.45L76.80 24.25L73.10 24.25L73.10 17.50L77.20 17.50L79.35 9.50L86.75 9.50L86.75 17.50L92.35 17.50ZM97.30 14.40L97.30 7.65L107.25 7.65L107.25 14.40L97.30 14.40M97.30 43.90L97.30 17.50L107.25 17.50L107.25 43.90L97.30 43.90Z"/></g><g transform="translate(0, 60.5)"><path d="M22.35 18.30L22.35 43.90L11.30 43.90L11.30 18.30L0 18.30L0 9.50L33.60 9.50L33.60 18.30L22.35 18.30ZM51.60 16.90Q58.85 16.90 62.68 20.30Q66.50 23.70 66.50 30.70L66.50 32.40L46.70 32.40Q46.70 35.25 47.98 36.70Q49.25 38.15 52 38.15Q54.50 38.15 55.68 37.10Q56.85 36.05 56.85 34.30L66.50 34.30Q66.50 39.10 62.85 41.80Q59.20 44.50 52.20 44.50Q44.85 44.50 40.80 41.07Q36.75 37.65 36.75 30.70Q36.75 23.90 40.70 20.40Q44.65 16.90 51.60 16.90M52 23.25Q47.30 23.25 46.75 27.70L56.45 27.70Q56.45 25.65 55.28 24.45Q54.10 23.25 52 23.25ZM87.35 16.85Q88.50 16.85 89.40 17.12Q90.30 17.40 90.30 17.45L90.30 25.80L87.10 25.80Q84.00 25.80 82.63 27.40Q81.25 29 81.25 32.15L81.25 43.90L71.30 43.90L71.30 17.50L79.45 17.50L80.10 21.50Q81.00 19.20 82.95 18.02Q84.90 16.85 87.35 16.85ZM109.55 16.85Q110.70 16.85 111.60 17.12Q112.50 17.40 112.50 17.45L112.50 25.80L109.30 25.80Q106.20 25.80 104.83 27.40Q103.45 29 103.45 32.15L103.45 43.90L93.50 43.90L93.50 17.50L101.65 17.50L102.30 21.50Q103.20 19.20 105.15 18.02Q107.10 16.85 109.55 16.85ZM129.35 16.90Q136.30 16.90 140.28 20.42Q144.25 23.95 144.25 30.70Q144.25 37.45 140.28 40.98Q136.30 44.50 129.35 44.50Q122.40 44.50 118.45 41Q114.50 37.50 114.50 30.70Q114.50 23.90 118.45 20.40Q122.40 16.90 129.35 16.90M129.35 23.65Q124.45 23.65 124.45 29.30L124.45 32.15Q124.45 37.75 129.35 37.75Q134.30 37.75 134.30 32.15L134.30 29.30Q134.30 23.65 129.35 23.65ZM165.10 16.85Q166.25 16.85 167.15 17.12Q168.05 17.40 168.05 17.45L168.05 25.80L164.85 25.80Q161.75 25.80 160.38 27.40Q159 29 159 32.15L159 43.90L149.05 43.90L149.05 17.50L157.20 17.50L157.85 21.50Q158.75 19.20 160.70 18.02Q162.65 16.85 165.10 16.85ZM171.60 14.40L171.60 7.65L181.55 7.65L181.55 14.40L171.60 14.40M171.60 43.90L171.60 17.50L181.55 17.50L181.55 43.90L171.60 43.90ZM200.45 16.90Q205.75 16.90 209.43 18.97Q213.10 21.05 213.10 25.40L203.85 25.40Q203.85 23.95 202.55 23.35Q201.65 22.85 200.30 22.85Q196.70 22.85 196.70 24.55Q196.70 25.50 197.95 25.90Q199.20 26.30 202.05 26.75Q205.55 27.25 207.90 27.92Q210.25 28.60 212 30.32Q213.75 32.05 213.75 35.15Q213.75 40.20 209.98 42.35Q206.20 44.50 200.10 44.50Q196.60 44.50 193.50 43.52Q190.40 42.55 188.45 40.50Q186.50 38.45 186.50 35.30L195.75 35.30L195.75 35.50Q195.80 37.20 197.18 37.88Q198.55 38.55 200.10 38.55Q204.25 38.55 204.25 36.60Q204.25 35.60 202.95 35.15Q201.65 34.70 198.70 34.20Q195.15 33.60 192.88 32.90Q190.60 32.20 188.90 30.52Q187.20 28.85 187.20 25.85Q187.20 21.00 190.88 18.95Q194.55 16.90 200.45 16.90ZM253.50 16.90Q258 16.90 260.25 19.47Q262.50 22.05 262.50 26.80L262.50 43.90L252.55 43.90L252.55 28Q252.55 26.30 251.73 25.27Q250.90 24.25 249.40 24.25Q247.65 24.25 246.55 25.45Q245.45 26.65 245.45 28.40L245.45 43.90L235.50 43.90L235.50 28Q235.50 26.30 234.68 25.27Q233.85 24.25 232.35 24.25Q230.60 24.25 229.50 25.45Q228.40 26.65 228.40 28.40L228.40 43.90L218.45 43.90L218.45 17.50L226.60 17.50L227.25 21.45Q228.75 19.35 231.23 18.12Q233.70 16.90 236.45 16.90Q242.40 16.90 244.45 21.45Q246.00 19.35 248.43 18.12Q250.85 16.90 253.50 16.90Z"/></g><g transform="translate(0, 121)"><path d="M16.00 8.90Q22.60 8.90 26.85 11.57Q31.10 14.25 31.20 19.50L31.20 20.10L20.85 20.10L20.85 19.90Q20.85 18.40 19.75 17.40Q18.65 16.40 16.40 16.40Q14.20 16.40 13.03 17.05Q11.85 17.70 11.85 18.65Q11.85 20.00 13.45 20.65Q15.05 21.30 18.60 22.00Q22.75 22.85 25.43 23.77Q28.10 24.70 30.10 26.80Q32.10 28.90 32.15 32.50Q32.15 38.60 28.03 41.55Q23.90 44.50 17.00 44.50Q8.95 44.50 4.47 41.80Q0 39.10 0 32.25L10.45 32.25Q10.45 34.85 11.80 35.72Q13.15 36.60 16.00 36.60Q18.10 36.60 19.48 36.15Q20.85 35.70 20.85 34.30Q20.85 33.05 19.33 32.42Q17.80 31.80 14.35 31.10Q10.15 30.20 7.40 29.22Q4.65 28.25 2.60 26.00Q0.55 23.75 0.55 19.90Q0.55 14.25 4.93 11.57Q9.30 8.90 16.00 8.90ZM46.90 16.90Q52.40 16.90 55.30 21.25L56.15 17.50L64.25 17.50L64.25 53.75L54.30 53.75L54.30 41.50Q51.50 44.50 46.90 44.50Q41.55 44.50 38.65 41.02Q35.75 37.55 35.75 30.75Q35.75 23.90 38.65 20.40Q41.55 16.90 46.90 16.90M50 24.25Q45.70 24.25 45.70 29.35L45.70 32Q45.70 37.15 50 37.15Q52.20 37.15 53.30 35.57Q54.40 34 54.40 31.50L54.40 29.85Q54.40 27.35 53.30 25.80Q52.20 24.25 50 24.25ZM89.45 43.90L88.80 39.90Q87.25 42.05 84.73 43.27Q82.20 44.50 79.40 44.50Q74.80 44.50 72.50 41.95Q70.20 39.40 70.20 34.60L70.20 17.50L80.15 17.50L80.15 33.40Q80.15 35.10 81.03 36.13Q81.90 37.15 83.50 37.15Q85.35 37.15 86.50 35.95Q87.65 34.75 87.65 33L87.65 17.50L97.60 17.50L97.60 43.90L89.45 43.90ZM116.70 16.90Q122.75 16.90 126.55 18.92Q130.35 20.95 130.35 25.50L130.35 35.80Q130.35 36.65 130.75 37.20Q131.15 37.75 131.95 37.75L133.75 37.75L133.75 43.50Q133.60 43.60 132.98 43.82Q132.35 44.05 131.20 44.27Q130.05 44.50 128.55 44.50Q125.65 44.50 123.78 43.63Q121.90 42.75 121.20 41.20Q119.30 42.70 116.95 43.60Q114.60 44.50 111.45 44.50Q102.15 44.50 102.15 37.10Q102.15 33.25 104.23 31.22Q106.30 29.20 110.20 28.45Q114.10 27.70 120.40 27.70L120.40 26.40Q120.40 24.85 119.33 24.05Q118.25 23.25 116.55 23.25Q115 23.25 113.88 23.80Q112.75 24.35 112.75 25.55L112.75 25.75L102.95 25.75Q102.90 25.50 102.90 25.05Q102.90 21.30 106.48 19.10Q110.05 16.90 116.70 16.90M120.40 32.40Q116.15 32.40 114.13 33.32Q112.10 34.25 112.10 35.80Q112.10 38.30 115.50 38.30Q117.45 38.30 118.93 37.25Q120.40 36.20 120.40 34.65L120.40 32.40ZM156.20 43.90L155.35 40.15Q152.45 44.50 146.95 44.50Q141.60 44.50 138.70 41Q135.80 37.50 135.80 30.65Q135.80 23.85 138.70 20.37Q141.60 16.90 146.95 16.90Q151.50 16.90 154.35 19.95L154.35 7.65L164.30 7.65L164.30 43.90L156.20 43.90M150.05 24.25Q145.75 24.25 145.75 29.40L145.75 32.05Q145.75 37.15 150.05 37.15Q152.25 37.15 153.35 35.60Q154.45 34.05 154.45 31.55L154.45 29.90Q154.45 27.40 153.35 25.82Q152.25 24.25 150.05 24.25Z"/></g></g></g></svg>