<svg xmlns="http://www.w3.org/2000/svg" viewBox="0 7.650000095367432 351.20001220703125 167.10000610351562" data-asc="0.878" width="351.20001220703125" height="167.10000610351562"><defs/><g><g fill="#ffffff"><g transform="translate(0, 0)"><path d="M17.85 8.90Q25.50 8.90 29.95 12.72Q34.40 16.55 34.40 23.65L23.85 23.65Q23.85 20.65 22.28 18.90Q20.70 17.15 17.80 17.15Q14.45 17.15 12.88 19.25Q11.30 21.35 11.30 25.10L11.30 28.30Q11.30 32 12.88 34.13Q14.45 36.25 17.70 36.25Q20.90 36.25 22.55 34.60Q24.20 32.95 24.20 29.95L34.40 29.95Q34.40 37 30.08 40.75Q25.75 44.50 17.85 44.50Q9.05 44.50 4.53 40Q0 35.50 0 26.70Q0 17.90 4.53 13.40Q9.05 8.90 17.85 8.90ZM55.70 16.85Q56.85 16.85 57.75 17.12Q58.65 17.40 58.65 17.45L58.65 25.80L55.45 25.80Q52.35 25.80 50.98 27.40Q49.60 29 49.60 32.15L49.60 43.90L39.65 43.90L39.65 17.50L47.80 17.50L48.45 21.50Q49.35 19.20 51.30 18.02Q53.25 16.85 55.70 16.85ZM62.20 14.40L62.20 7.65L72.15 7.65L72.15 14.40L62.20 14.40M62.20 43.90L62.20 17.50L72.15 17.50L72.15 43.90L62.20 43.90ZM113.55 16.90Q118.05 16.90 120.30 19.47Q122.55 22.05 122.55 26.80L122.55 43.90L112.60 43.90L112.60 28Q112.60 26.30 111.78 25.27Q110.95 24.25 109.45 24.25Q107.70 24.25 106.60 25.45Q105.50 26.65 105.50 28.40L105.50 43.90L95.55 43.90L95.55 28Q95.55 26.30 94.73 25.27Q93.90 24.25 92.40 24.25Q90.65 24.25 89.55 25.45Q88.45 26.65 88.45 28.40L88.45 43.90L78.50 43.90L78.50 17.50L86.65 17.50L87.30 21.45Q88.80 19.35 91.28 18.12Q93.75 16.90 96.50 16.90Q102.45 16.90 104.50 21.45Q106.05 19.35 108.48 18.12Q110.90 16.90 113.55 16.90ZM142.15 16.90Q149.40 16.90 153.23 20.30Q157.05 23.70 157.05 30.70L157.05 32.40L137.25 32.40Q137.25 35.25 138.53 36.70Q139.80 38.15 142.55 38.15Q145.05 38.15 146.23 37.10Q147.40 36.05 147.40 34.30L157.05 34.30Q157.05 39.10 153.40 41.80Q149.75 44.50 142.75 44.50Q135.40 44.50 131.35 41.07Q127.30 37.65 127.30 30.70Q127.30 23.90 131.25 20.40Q135.20 16.90 142.15 16.90M142.55 23.25Q137.85 23.25 137.30 27.70L147 27.70Q147 25.65 145.83 24.45Q144.65 23.25 142.55 23.25Z"/></g><g transform="translate(0, 60.5)"><path d="M0 43.90L0 9.50L11.05 9.50L11.05 43.90L0 43.90ZM36.45 16.90Q41.05 16.90 43.35 19.45Q45.65 22.00 45.65 26.80L45.65 43.90L35.70 43.90L35.70 28Q35.70 26.30 34.83 25.27Q33.95 24.25 32.35 24.25Q30.50 24.25 29.35 25.45Q28.20 26.65 28.20 28.40L28.20 43.90L18.25 43.90L18.25 17.50L26.40 17.50L27.05 21.50Q28.60 19.40 31.13 18.15Q33.65 16.90 36.45 16.90ZM58.60 43.90L48.60 17.50L59.30 17.50L64.15 33.95L64.50 33.95L69.35 17.50L79.15 17.50L69.05 43.90L58.60 43.90ZM95.80 16.90Q103.05 16.90 106.88 20.30Q110.70 23.70 110.70 30.70L110.70 32.40L90.90 32.40Q90.90 35.25 92.18 36.70Q93.45 38.15 96.20 38.15Q98.70 38.15 99.88 37.10Q101.05 36.05 101.05 34.30L110.70 34.30Q110.70 39.10 107.05 41.80Q103.40 44.50 96.40 44.50Q89.05 44.50 85 41.07Q80.95 37.65 80.95 30.70Q80.95 23.90 84.90 20.40Q88.85 16.90 95.80 16.90M96.20 23.25Q91.50 23.25 90.95 27.70L100.65 27.70Q100.65 25.65 99.48 24.45Q98.30 23.25 96.20 23.25ZM128.05 16.90Q133.35 16.90 137.03 18.97Q140.70 21.05 140.70 25.40L131.45 25.40Q131.45 23.95 130.15 23.35Q129.25 22.85 127.90 22.85Q124.30 22.85 124.30 24.55Q124.30 25.50 125.55 25.90Q126.80 26.30 129.65 26.75Q133.15 27.25 135.50 27.92Q137.85 28.60 139.60 30.32Q141.35 32.05 141.35 35.15Q141.35 40.20 137.57 42.35Q133.80 44.50 127.70 44.50Q124.20 44.50 121.10 43.52Q118 42.55 116.05 40.50Q114.10 38.45 114.10 35.30L123.35 35.30L123.35 35.50Q123.40 37.20 124.78 37.88Q126.15 38.55 127.70 38.55Q131.85 38.55 131.85 36.60Q131.85 35.60 130.55 35.15Q129.25 34.70 126.30 34.20Q122.75 33.60 120.47 32.90Q118.20 32.20 116.50 30.52Q114.80 28.85 114.80 25.85Q114.80 21.00 118.47 18.95Q122.15 16.90 128.05 16.90ZM163.65 17.50L163.65 24.25L158.05 24.25L158.05 34.30Q158.05 36.10 158.65 36.92Q159.25 37.75 160.85 37.75L163.65 37.75L163.65 43.60Q162.45 44 160.55 44.25Q158.65 44.50 157.25 44.50Q152.85 44.50 150.48 42.90Q148.10 41.30 148.10 37.45L148.10 24.25L144.40 24.25L144.40 17.50L148.50 17.50L150.65 9.50L158.05 9.50L158.05 17.50L163.65 17.50ZM168.60 14.40L168.60 7.65L178.55 7.65L178.55 14.40L168.60 14.40M168.60 43.90L168.60 17.50L178.55 17.50L178.55 43.90L168.60 43.90ZM214.60 12.55Q214.60 15.60 213.08 17.25Q211.55 18.90 208.50 19.70Q209.95 20.80 210.78 22.27Q211.60 23.75 211.60 25.40Q211.60 29.60 208.43 31.75Q205.25 33.90 200.50 33.90L196.70 33.90Q193.55 33.90 193.55 35.35Q193.55 36.05 194.25 36.47Q194.95 36.90 196.70 36.90L205.70 36.90Q210.10 36.90 212.35 39.20Q214.60 41.50 214.60 45.35Q214.60 48.20 213.10 50.25Q211.60 52.30 209.05 53.35Q206.50 54.40 203.50 54.40L188.80 54.40Q187 54.40 185.47 53.55Q183.95 52.70 183.05 51.23Q182.15 49.75 182.15 47.95Q182.15 46 183.35 44.42Q184.55 42.85 186.35 42.05Q185.15 41.20 184.45 40Q183.75 38.80 183.75 37.40Q183.75 35.45 185.20 33.88Q186.65 32.30 188.80 31.75Q186.85 30.50 185.70 28.88Q184.55 27.25 184.55 25.45Q184.55 20.85 188.28 18.87Q192 16.90 198.15 16.90Q200.85 16.90 202.50 17.20Q204.95 15.65 205.68 14.37Q206.40 13.10 206.40 12.55L214.60 12.55M198.05 22.10Q196.40 22.10 195.35 22.95Q194.30 23.80 194.30 25.40Q194.30 27.05 195.28 27.87Q196.25 28.70 198.05 28.70Q199.85 28.70 200.88 27.87Q201.90 27.05 201.90 25.40Q201.90 23.75 200.88 22.92Q199.85 22.10 198.05 22.10M194.20 43.90Q193.05 43.90 192.33 44.52Q191.60 45.15 191.60 46.30Q191.60 47.45 192.35 48.15Q193.10 48.85 194.20 48.85L202 48.85Q203.10 48.85 203.88 48.17Q204.65 47.50 204.65 46.35Q204.65 45.20 203.90 44.55Q203.15 43.90 202 43.90L194.20 43.90ZM231.30 16.90Q237.35 16.90 241.15 18.92Q244.95 20.95 244.95 25.50L244.95 35.80Q244.95 36.65 245.35 37.20Q245.75 37.75 246.55 37.75L248.35 37.75L248.35 43.50Q248.20 43.60 247.57 43.82Q246.95 44.05 245.80 44.27Q244.65 44.50 243.15 44.50Q240.25 44.50 238.38 43.63Q236.50 42.75 235.80 41.20Q233.90 42.70 231.55 43.60Q229.20 44.50 226.05 44.50Q216.75 44.50 216.75 37.10Q216.75 33.25 218.82 31.22Q220.90 29.20 224.80 28.45Q228.70 27.70 235 27.70L235 26.40Q235 24.85 233.93 24.05Q232.85 23.25 231.15 23.25Q229.60 23.25 228.47 23.80Q227.35 24.35 227.35 25.55L227.35 25.75L217.55 25.75Q217.50 25.50 217.50 25.05Q217.50 21.30 221.07 19.10Q224.65 16.90 231.30 16.90M235 32.40Q230.75 32.40 228.72 33.32Q226.70 34.25 226.70 35.80Q226.70 38.30 230.10 38.30Q232.05 38.30 233.53 37.25Q235 36.20 235 34.65L235 32.40ZM269.20 17.50L269.20 24.25L263.60 24.25L263.60 34.30Q263.60 36.10 264.20 36.92Q264.80 37.75 266.40 37.75L269.20 37.75L269.20 43.60Q268 44 266.10 44.25Q264.20 44.50 262.80 44.50Q258.40 44.50 256.02 42.90Q253.65 41.30 253.65 37.45L253.65 24.25L249.95 24.25L249.95 17.50L254.05 17.50L256.20 9.50L263.60 9.50L263.60 17.50L269.20 17.50ZM274.15 14.40L274.15 7.65L284.10 7.65L284.10 14.40L274.15 14.40M274.15 43.90L274.15 17.50L284.10 17.50L284.10 43.90L274.15 43.90ZM304.10 16.90Q311.05 16.90 315.02 20.42Q319 23.95 319 30.70Q319 37.45 315.02 40.98Q311.05 44.50 304.10 44.50Q297.15 44.50 293.20 41Q289.25 37.50 289.25 30.70Q289.25 23.90 293.20 20.40Q297.15 16.90 304.10 16.90M304.10 23.65Q299.20 23.65 299.20 29.30L299.20 32.15Q299.20 37.75 304.10 37.75Q309.05 37.75 309.05 32.15L309.05 29.30Q309.05 23.65 304.10 23.65ZM342 16.90Q346.60 16.90 348.90 19.45Q351.20 22.00 351.20 26.80L351.20 43.90L341.25 43.90L341.25 28Q341.25 26.30 340.38 25.27Q339.50 24.25 337.90 24.25Q336.05 24.25 334.90 25.45Q333.75 26.65 333.75 28.40L333.75 43.90L323.80 43.90L323.80 17.50L331.95 17.50L332.60 21.50Q334.15 19.40 336.68 18.15Q339.20 16.90 342 16.90Z"/></g><g transform="translate(0, 121)"><path d="M14.90 9.50Q32.95 9.50 32.95 26.70Q32.95 43.90 14.90 43.90L0 43.90L0 9.50L14.90 9.50M11.05 35.65L14.70 35.65Q21.65 35.65 21.65 28.20L21.65 25.20Q21.65 17.75 14.70 17.75L11.05 17.75L11.05 35.65ZM51.85 16.90Q59.10 16.90 62.93 20.30Q66.75 23.70 66.75 30.70L66.75 32.40L46.95 32.40Q46.95 35.25 48.23 36.70Q49.50 38.15 52.25 38.15Q54.75 38.15 55.93 37.10Q57.10 36.05 57.10 34.30L66.75 34.30Q66.75 39.10 63.10 41.80Q59.45 44.50 52.45 44.50Q45.10 44.50 41.05 41.07Q37 37.65 37 30.70Q37 23.90 40.95 20.40Q44.90 16.90 51.85 16.90M52.25 23.25Q47.55 23.25 47 27.70L56.70 27.70Q56.70 25.65 55.53 24.45Q54.35 23.25 52.25 23.25ZM88.95 16.90Q94.30 16.90 97.20 20.40Q100.10 23.90 100.10 30.75Q100.10 37.55 97.20 41.02Q94.30 44.50 88.95 44.50Q84.35 44.50 81.55 41.50L81.55 53.75L71.60 53.75L71.60 17.50L79.70 17.50L80.55 21.25Q83.45 16.90 88.95 16.90M85.85 24.25Q83.65 24.25 82.55 25.80Q81.45 27.35 81.45 29.85L81.45 31.50Q81.45 34 82.55 35.57Q83.65 37.15 85.85 37.15Q90.15 37.15 90.15 32L90.15 29.35Q90.15 24.25 85.85 24.25ZM117.95 16.90Q124 16.90 127.80 18.92Q131.60 20.95 131.60 25.50L131.60 35.80Q131.60 36.65 132 37.20Q132.40 37.75 133.20 37.75L135 37.75L135 43.50Q134.85 43.60 134.23 43.82Q133.60 44.05 132.45 44.27Q131.30 44.50 129.80 44.50Q126.90 44.50 125.03 43.63Q123.15 42.75 122.45 41.20Q120.55 42.70 118.20 43.60Q115.85 44.50 112.70 44.50Q103.40 44.50 103.40 37.10Q103.40 33.25 105.48 31.22Q107.55 29.20 111.45 28.45Q115.35 27.70 121.65 27.70L121.65 26.40Q121.65 24.85 120.58 24.05Q119.50 23.25 117.80 23.25Q116.25 23.25 115.13 23.80Q114 24.35 114 25.55L114 25.75L104.20 25.75Q104.15 25.50 104.15 25.05Q104.15 21.30 107.73 19.10Q111.30 16.90 117.95 16.90M121.65 32.40Q117.40 32.40 115.38 33.32Q113.35 34.25 113.35 35.80Q113.35 38.30 116.75 38.30Q118.70 38.30 120.18 37.25Q121.65 36.20 121.65 34.65L121.65 32.40ZM154.30 16.85Q155.45 16.85 156.35 17.12Q157.25 17.40 157.25 17.45L157.25 25.80L154.05 25.80Q150.95 25.80 149.57 27.40Q148.20 29 148.20 32.15L148.20 43.90L138.25 43.90L138.25 17.50L146.40 17.50L147.05 21.50Q147.95 19.20 149.90 18.02Q151.85 16.85 154.30 16.85ZM178.05 17.50L178.05 24.25L172.45 24.25L172.45 34.30Q172.45 36.10 173.05 36.92Q173.65 37.75 175.25 37.75L178.05 37.75L178.05 43.60Q176.85 44 174.95 44.25Q173.05 44.50 171.65 44.50Q167.25 44.50 164.88 42.90Q162.50 41.30 162.50 37.45L162.50 24.25L158.80 24.25L158.80 17.50L162.90 17.50L165.05 9.50L172.45 9.50L172.45 17.50L178.05 17.50ZM217.70 16.90Q222.20 16.90 224.45 19.47Q226.70 22.05 226.70 26.80L226.70 43.90L216.75 43.90L216.75 28Q216.75 26.30 215.92 25.27Q215.10 24.25 213.60 24.25Q211.85 24.25 210.75 25.45Q209.65 26.65 209.65 28.40L209.65 43.90L199.70 43.90L199.70 28Q199.70 26.30 198.87 25.27Q198.05 24.25 196.55 24.25Q194.80 24.25 193.70 25.45Q192.60 26.65 192.60 28.40L192.60 43.90L182.65 43.90L182.65 17.50L190.80 17.50L191.45 21.45Q192.95 19.35 195.42 18.12Q197.90 16.90 200.65 16.90Q206.60 16.90 208.65 21.45Q210.20 19.35 212.62 18.12Q215.05 16.90 217.70 16.90ZM246.30 16.90Q253.55 16.90 257.38 20.30Q261.20 23.70 261.20 30.70L261.20 32.40L241.40 32.40Q241.40 35.25 242.67 36.70Q243.95 38.15 246.70 38.15Q249.20 38.15 250.37 37.10Q251.55 36.05 251.55 34.30L261.20 34.30Q261.20 39.10 257.55 41.80Q253.90 44.50 246.90 44.50Q239.55 44.50 235.50 41.07Q231.45 37.65 231.45 30.70Q231.45 23.90 235.40 20.40Q239.35 16.90 246.30 16.90M246.70 23.25Q242.00 23.25 241.45 27.70L251.15 27.70Q251.15 25.65 249.97 24.45Q248.80 23.25 246.70 23.25ZM284.20 16.90Q288.80 16.90 291.10 19.45Q293.40 22.00 293.40 26.80L293.40 43.90L283.45 43.90L283.45 28Q283.45 26.30 282.57 25.27Q281.70 24.25 280.10 24.25Q278.25 24.25 277.10 25.45Q275.95 26.65 275.95 28.40L275.95 43.90L266 43.90L266 17.50L274.15 17.50L274.80 21.50Q276.35 19.40 278.88 18.15Q281.40 16.90 284.20 16.90ZM316.95 17.50L316.95 24.25L311.35 24.25L311.35 34.30Q311.35 36.10 311.95 36.92Q312.55 37.75 314.15 37.75L316.95 37.75L316.95 43.60Q315.75 44 313.85 44.25Q311.95 44.50 310.55 44.50Q306.15 44.50 303.78 42.90Q301.40 41.30 301.40 37.45L301.40 24.25L297.70 24.25L297.70 17.50L301.80 17.50L303.95 9.50L311.35 9.50L311.35 17.50L316.95 17.50Z"/></g></g></g></svg>