<svg xmlns="http://www.w3.org/2000/svg" viewBox="0 7.650000095367432 351.20001220703125 167.75" data-asc="0.878" width="351.20001220703125" height="167.75"><defs/><g><g fill="#ffffff"><g transform="translate(0, 0)"><path d="M24.60 43.90L10.15 27.20L10.15 43.90L0 43.90L0 9.50L9.65 9.50L24.10 26.45L24.10 9.50L34.25 9.50L34.25 43.90L24.60 43.90ZM54 16.90Q60.05 16.90 63.85 18.92Q67.65 20.95 67.65 25.50L67.65 35.80Q67.65 36.65 68.05 37.20Q68.45 37.75 69.25 37.75L71.05 37.75L71.05 43.50Q70.90 43.60 70.28 43.82Q69.65 44.05 68.50 44.27Q67.35 44.50 65.85 44.50Q62.95 44.50 61.08 43.63Q59.20 42.75 58.50 41.20Q56.60 42.70 54.25 43.60Q51.90 44.50 48.75 44.50Q39.45 44.50 39.45 37.10Q39.45 33.25 41.53 31.22Q43.60 29.20 47.50 28.45Q51.40 27.70 57.70 27.70L57.70 26.40Q57.70 24.85 56.63 24.05Q55.55 23.25 53.85 23.25Q52.30 23.25 51.18 23.80Q50.05 24.35 50.05 25.55L50.05 25.75L40.25 25.75Q40.20 25.50 40.20 25.05Q40.20 21.30 43.78 19.10Q47.35 16.90 54 16.90M57.70 32.40Q53.45 32.40 51.43 33.32Q49.40 34.25 49.40 35.80Q49.40 38.30 52.80 38.30Q54.75 38.30 56.23 37.25Q57.70 36.20 57.70 34.65L57.70 32.40ZM91.90 17.50L91.90 24.25L86.30 24.25L86.30 34.30Q86.30 36.10 86.90 36.92Q87.50 37.75 89.10 37.75L91.90 37.75L91.90 43.60Q90.70 44 88.80 44.25Q86.90 44.50 85.50 44.50Q81.10 44.50 78.73 42.90Q76.35 41.30 76.35 37.45L76.35 24.25L72.65 24.25L72.65 17.50L76.75 17.50L78.90 9.50L86.30 9.50L86.30 17.50L91.90 17.50ZM96.85 14.40L96.85 7.65L106.80 7.65L106.80 14.40L96.85 14.40M96.85 43.90L96.85 17.50L106.80 17.50L106.80 43.90L96.85 43.90ZM126.80 16.90Q133.75 16.90 137.73 20.42Q141.70 23.95 141.70 30.70Q141.70 37.45 137.73 40.98Q133.75 44.50 126.80 44.50Q119.85 44.50 115.90 41Q111.95 37.50 111.95 30.70Q111.95 23.90 115.90 20.40Q119.85 16.90 126.80 16.90M126.80 23.65Q121.90 23.65 121.90 29.30L121.90 32.15Q121.90 37.75 126.80 37.75Q131.75 37.75 131.75 32.15L131.75 29.30Q131.75 23.65 126.80 23.65ZM164.70 16.90Q169.30 16.90 171.60 19.45Q173.90 22.00 173.90 26.80L173.90 43.90L163.95 43.90L163.95 28Q163.95 26.30 163.08 25.27Q162.20 24.25 160.60 24.25Q158.75 24.25 157.60 25.45Q156.45 26.65 156.45 28.40L156.45 43.90L146.50 43.90L146.50 17.50L154.65 17.50L155.30 21.50Q156.85 19.40 159.38 18.15Q161.90 16.90 164.70 16.90ZM192.90 16.90Q198.95 16.90 202.75 18.92Q206.55 20.95 206.55 25.50L206.55 35.80Q206.55 36.65 206.95 37.20Q207.35 37.75 208.15 37.75L209.95 37.75L209.95 43.50Q209.80 43.60 209.18 43.82Q208.55 44.05 207.40 44.27Q206.25 44.50 204.75 44.50Q201.85 44.50 199.98 43.63Q198.10 42.75 197.40 41.20Q195.50 42.70 193.15 43.60Q190.80 44.50 187.65 44.50Q178.35 44.50 178.35 37.10Q178.35 33.25 180.43 31.22Q182.50 29.20 186.40 28.45Q190.30 27.70 196.60 27.70L196.60 26.40Q196.60 24.85 195.53 24.05Q194.45 23.25 192.75 23.25Q191.20 23.25 190.08 23.80Q188.95 24.35 188.95 25.55L188.95 25.75L179.15 25.75Q179.10 25.50 179.10 25.05Q179.10 21.30 182.68 19.10Q186.25 16.90 192.90 16.90M196.60 32.40Q192.35 32.40 190.33 33.32Q188.30 34.25 188.30 35.80Q188.30 38.30 191.70 38.30Q193.65 38.30 195.13 37.25Q196.60 36.20 196.60 34.65L196.60 32.40ZM213.55 43.90L213.55 7.65L223.50 7.65L223.50 43.90L213.55 43.90Z"/></g><g transform="translate(0, 60.5)"><path d="M0 43.90L0 9.50L11.05 9.50L11.05 43.90L0 43.90ZM36.45 16.90Q41.05 16.90 43.35 19.45Q45.65 22.00 45.65 26.80L45.65 43.90L35.70 43.90L35.70 28Q35.70 26.30 34.83 25.27Q33.95 24.25 32.35 24.25Q30.50 24.25 29.35 25.45Q28.20 26.65 28.20 28.40L28.20 43.90L18.25 43.90L18.25 17.50L26.40 17.50L27.05 21.50Q28.60 19.40 31.13 18.15Q33.65 16.90 36.45 16.90ZM58.60 43.90L48.60 17.50L59.30 17.50L64.15 33.95L64.50 33.95L69.35 17.50L79.15 17.50L69.05 43.90L58.60 43.90ZM95.80 16.90Q103.05 16.90 106.88 20.30Q110.70 23.70 110.70 30.70L110.70 32.40L90.90 32.40Q90.90 35.25 92.18 36.70Q93.45 38.15 96.20 38.15Q98.70 38.15 99.88 37.10Q101.05 36.05 101.05 34.30L110.70 34.30Q110.70 39.10 107.05 41.80Q103.40 44.50 96.40 44.50Q89.05 44.50 85 41.07Q80.95 37.65 80.95 30.70Q80.95 23.90 84.90 20.40Q88.85 16.90 95.80 16.90M96.20 23.25Q91.50 23.25 90.95 27.70L100.65 27.70Q100.65 25.65 99.48 24.45Q98.30 23.25 96.20 23.25ZM128.05 16.90Q133.35 16.90 137.03 18.97Q140.70 21.05 140.70 25.40L131.45 25.40Q131.45 23.95 130.15 23.35Q129.25 22.85 127.90 22.85Q124.30 22.85 124.30 24.55Q124.30 25.50 125.55 25.90Q126.80 26.30 129.65 26.75Q133.15 27.25 135.50 27.92Q137.85 28.60 139.60 30.32Q141.35 32.05 141.35 35.15Q141.35 40.20 137.57 42.35Q133.80 44.50 127.70 44.50Q124.20 44.50 121.10 43.52Q118 42.55 116.05 40.50Q114.10 38.45 114.10 35.30L123.35 35.30L123.35 35.50Q123.40 37.20 124.78 37.88Q126.15 38.55 127.70 38.55Q131.85 38.55 131.85 36.60Q131.85 35.60 130.55 35.15Q129.25 34.70 126.30 34.20Q122.75 33.60 120.47 32.90Q118.20 32.20 116.50 30.52Q114.80 28.85 114.80 25.85Q114.80 21.00 118.47 18.95Q122.15 16.90 128.05 16.90ZM163.65 17.50L163.65 24.25L158.05 24.25L158.05 34.30Q158.05 36.10 158.65 36.92Q159.25 37.75 160.85 37.75L163.65 37.75L163.65 43.60Q162.45 44 160.55 44.25Q158.65 44.50 157.25 44.50Q152.85 44.50 150.48 42.90Q148.10 41.30 148.10 37.45L148.10 24.25L144.40 24.25L144.40 17.50L148.50 17.50L150.65 9.50L158.05 9.50L158.05 17.50L163.65 17.50ZM168.60 14.40L168.60 7.65L178.55 7.65L178.55 14.40L168.60 14.40M168.60 43.90L168.60 17.50L178.55 17.50L178.55 43.90L168.60 43.90ZM214.60 12.55Q214.60 15.60 213.08 17.25Q211.55 18.90 208.50 19.70Q209.95 20.80 210.78 22.27Q211.60 23.75 211.60 25.40Q211.60 29.60 208.43 31.75Q205.25 33.90 200.50 33.90L196.70 33.90Q193.55 33.90 193.55 35.35Q193.55 36.05 194.25 36.47Q194.95 36.90 196.70 36.90L205.70 36.90Q210.10 36.90 212.35 39.20Q214.60 41.50 214.60 45.35Q214.60 48.20 213.10 50.25Q211.60 52.30 209.05 53.35Q206.50 54.40 203.50 54.40L188.80 54.40Q187 54.40 185.47 53.55Q183.95 52.70 183.05 51.23Q182.15 49.75 182.15 47.95Q182.15 46 183.35 44.42Q184.55 42.85 186.35 42.05Q185.15 41.20 184.45 40Q183.75 38.80 183.75 37.40Q183.75 35.45 185.20 33.88Q186.65 32.30 188.80 31.75Q186.85 30.50 185.70 28.88Q184.55 27.25 184.55 25.45Q184.55 20.85 188.28 18.87Q192 16.90 198.15 16.90Q200.85 16.90 202.50 17.20Q204.95 15.65 205.68 14.37Q206.40 13.10 206.40 12.55L214.60 12.55M198.05 22.10Q196.40 22.10 195.35 22.95Q194.30 23.80 194.30 25.40Q194.30 27.05 195.28 27.87Q196.25 28.70 198.05 28.70Q199.85 28.70 200.88 27.87Q201.90 27.05 201.90 25.40Q201.90 23.75 200.88 22.92Q199.85 22.10 198.05 22.10M194.20 43.90Q193.05 43.90 192.33 44.52Q191.60 45.15 191.60 46.30Q191.60 47.45 192.35 48.15Q193.10 48.85 194.20 48.85L202 48.85Q203.10 48.85 203.88 48.17Q204.65 47.50 204.65 46.35Q204.65 45.20 203.90 44.55Q203.15 43.90 202 43.90L194.20 43.90ZM231.30 16.90Q237.35 16.90 241.15 18.92Q244.95 20.95 244.95 25.50L244.95 35.80Q244.95 36.65 245.35 37.20Q245.75 37.75 246.55 37.75L248.35 37.75L248.35 43.50Q248.20 43.60 247.57 43.82Q246.95 44.05 245.80 44.27Q244.65 44.50 243.15 44.50Q240.25 44.50 238.38 43.63Q236.50 42.75 235.80 41.20Q233.90 42.70 231.55 43.60Q229.20 44.50 226.05 44.50Q216.75 44.50 216.75 37.10Q216.75 33.25 218.82 31.22Q220.90 29.20 224.80 28.45Q228.70 27.70 235 27.70L235 26.40Q235 24.85 233.93 24.05Q232.85 23.25 231.15 23.25Q229.60 23.25 228.47 23.80Q227.35 24.35 227.35 25.55L227.35 25.75L217.55 25.75Q217.50 25.50 217.50 25.05Q217.50 21.30 221.07 19.10Q224.65 16.90 231.30 16.90M235 32.40Q230.75 32.40 228.72 33.32Q226.70 34.25 226.70 35.80Q226.70 38.30 230.10 38.30Q232.05 38.30 233.53 37.25Q235 36.20 235 34.65L235 32.40ZM269.20 17.50L269.20 24.25L263.60 24.25L263.60 34.30Q263.60 36.10 264.20 36.92Q264.80 37.75 266.40 37.75L269.20 37.75L269.20 43.60Q268 44 266.10 44.25Q264.20 44.50 262.80 44.50Q258.40 44.50 256.02 42.90Q253.65 41.30 253.65 37.45L253.65 24.25L249.95 24.25L249.95 17.50L254.05 17.50L256.20 9.50L263.60 9.50L263.60 17.50L269.20 17.50ZM274.15 14.40L274.15 7.65L284.10 7.65L284.10 14.40L274.15 14.40M274.15 43.90L274.15 17.50L284.10 17.50L284.10 43.90L274.15 43.90ZM304.10 16.90Q311.05 16.90 315.02 20.42Q319 23.95 319 30.70Q319 37.45 315.02 40.98Q311.05 44.50 304.10 44.50Q297.15 44.50 293.20 41Q289.25 37.50 289.25 30.70Q289.25 23.90 293.20 20.40Q297.15 16.90 304.10 16.90M304.10 23.65Q299.20 23.65 299.20 29.30L299.20 32.15Q299.20 37.75 304.10 37.75Q309.05 37.75 309.05 32.15L309.05 29.30Q309.05 23.65 304.10 23.65ZM342 16.90Q346.60 16.90 348.90 19.45Q351.20 22.00 351.20 26.80L351.20 43.90L341.25 43.90L341.25 28Q341.25 26.30 340.38 25.27Q339.50 24.25 337.90 24.25Q336.05 24.25 334.90 25.45Q333.75 26.65 333.75 28.40L333.75 43.90L323.80 43.90L323.80 17.50L331.95 17.50L332.60 21.50Q334.15 19.40 336.68 18.15Q339.20 16.90 342 16.90Z"/></g><g transform="translate(0, 121)"><path d="M26.25 43.90L24.80 39.05L12.75 39.05L11.30 43.90L0 43.90L12.55 9.50L25.40 9.50L37.95 43.90L26.25 43.90M15.05 31.35L22.50 31.35L18.90 19.10L18.70 19.10L15.05 31.35ZM71.10 12.55Q71.10 15.60 69.58 17.25Q68.05 18.90 65 19.70Q66.45 20.80 67.28 22.27Q68.10 23.75 68.10 25.40Q68.10 29.60 64.93 31.75Q61.75 33.90 57.00 33.90L53.20 33.90Q50.05 33.90 50.05 35.35Q50.05 36.05 50.75 36.47Q51.45 36.90 53.20 36.90L62.20 36.90Q66.60 36.90 68.85 39.20Q71.10 41.50 71.10 45.35Q71.10 48.20 69.60 50.25Q68.10 52.30 65.55 53.35Q63.00 54.40 60.00 54.40L45.30 54.40Q43.50 54.40 41.98 53.55Q40.45 52.70 39.55 51.23Q38.65 49.75 38.65 47.95Q38.65 46 39.85 44.42Q41.05 42.85 42.85 42.05Q41.65 41.20 40.95 40Q40.25 38.80 40.25 37.40Q40.25 35.45 41.70 33.88Q43.15 32.30 45.30 31.75Q43.35 30.50 42.20 28.88Q41.05 27.25 41.05 25.45Q41.05 20.85 44.78 18.87Q48.50 16.90 54.65 16.90Q57.35 16.90 59.00 17.20Q61.45 15.65 62.18 14.37Q62.90 13.10 62.90 12.55L71.10 12.55M54.55 22.10Q52.90 22.10 51.85 22.95Q50.80 23.80 50.80 25.40Q50.80 27.05 51.78 27.87Q52.75 28.70 54.55 28.70Q56.35 28.70 57.38 27.87Q58.40 27.05 58.40 25.40Q58.40 23.75 57.38 22.92Q56.35 22.10 54.55 22.10M50.70 43.90Q49.55 43.90 48.83 44.52Q48.10 45.15 48.10 46.30Q48.10 47.45 48.85 48.15Q49.60 48.85 50.70 48.85L58.50 48.85Q59.60 48.85 60.38 48.17Q61.15 47.50 61.15 46.35Q61.15 45.20 60.40 44.55Q59.65 43.90 58.50 43.90L50.70 43.90ZM88.40 16.90Q95.65 16.90 99.47 20.30Q103.30 23.70 103.30 30.70L103.30 32.40L83.50 32.40Q83.50 35.25 84.78 36.70Q86.05 38.15 88.80 38.15Q91.30 38.15 92.47 37.10Q93.65 36.05 93.65 34.30L103.30 34.30Q103.30 39.10 99.65 41.80Q96 44.50 89 44.50Q81.65 44.50 77.60 41.07Q73.55 37.65 73.55 30.70Q73.55 23.90 77.50 20.40Q81.45 16.90 88.40 16.90M88.80 23.25Q84.10 23.25 83.55 27.70L93.25 27.70Q93.25 25.65 92.08 24.45Q90.90 23.25 88.80 23.25ZM126.30 16.90Q130.90 16.90 133.20 19.45Q135.50 22.00 135.50 26.80L135.50 43.90L125.55 43.90L125.55 28Q125.55 26.30 124.67 25.27Q123.80 24.25 122.20 24.25Q120.35 24.25 119.20 25.45Q118.05 26.65 118.05 28.40L118.05 43.90L108.10 43.90L108.10 17.50L116.25 17.50L116.90 21.50Q118.45 19.40 120.97 18.15Q123.50 16.90 126.30 16.90ZM155.10 16.90Q161.60 16.90 165.63 19.67Q169.65 22.45 169.65 28.15L160 28.15Q160 23.65 155.10 23.65Q150.20 23.65 150.20 29.30L150.20 32.15Q150.20 37.75 155.30 37.75Q160.40 37.75 160.40 33.15L169.65 33.15Q169.65 38.90 165.63 41.70Q161.60 44.50 155.10 44.50Q148.15 44.50 144.20 41Q140.25 37.50 140.25 30.70Q140.25 23.90 144.20 20.40Q148.15 16.90 155.10 16.90ZM192.95 43.10Q190.90 48.65 187.92 51.52Q184.95 54.40 179.60 54.40Q176.35 54.40 173.85 53.50L173.85 47.55L177.85 47.55Q181.60 47.55 182.30 43.90L171.80 17.50L182.50 17.50L187.55 35.05L187.90 35.05L192.55 17.50L202.35 17.50L192.95 43.10Z"/></g><g transform="translate(0, 181.5)"><path d=""/></g></g></g></svg>