<svg xmlns="http://www.w3.org/2000/svg" viewBox="0 14.550000190734863 186.4499969482422 100.05000305175781" data-asc="1" width="186.4499969482422" height="100.05000305175781"><defs/><g><g fill="#ffffff"><g transform="translate(0, 0)"><path d="M0 50L0 14.55L0.50 14.55L14.60 31.18L28.60 14.55L29.15 14.55L29.15 50L22.95 50L22.95 35.05L23.18 29.15L21.40 31.85L14.55 39.90L7.70 31.85L5.92 29.15L6.20 35.05L6.20 50L0 50ZM32.50 50L47.25 14.55L47.75 14.55L62.55 50L55.75 50L53.80 44.95L41.35 44.95L39.50 50L32.50 50M46.65 30.60L43.15 40.10L51.95 40.10L48.30 30.60L47.45 27.80L46.65 30.60ZM68.90 50L68.90 20.80L60.85 20.80L60.85 15.15L83.40 15.15L83.40 20.80L75.35 20.80L75.35 50L68.90 50ZM111.55 50L103.80 50L94.85 37.40L94.85 50L88.50 50L88.50 15.15L98.20 15.15Q101.75 15.15 104.55 16.19Q107.35 17.23 108.98 19.65Q110.60 22.07 110.60 26.25Q110.60 28.52 109.84 30.94Q109.08 33.35 107.31 35.25Q105.55 37.15 102.55 37.90L111.55 50M94.85 34.25L97.50 34.25Q99.70 34.25 101.19 33.21Q102.68 32.17 103.44 30.49Q104.20 28.80 104.20 26.85Q104.20 23.47 102.65 21.81Q101.10 20.15 97.35 20.15L94.85 20.15L94.85 34.25ZM117.20 50L117.20 15.15L123.60 15.15L123.60 50L117.20 50ZM128.15 50L137.33 32.05L128.30 15.15L135.80 15.15L141.95 28.45L147.90 15.15L155.25 15.15L146.15 32.67L155.50 50L147.80 50L141.58 36.52L135.60 50L128.15 50Z"/></g><g transform="translate(0, 64)"><path d="M14.15 50.60Q11.43 50.60 8.90 49.49Q6.38 48.38 4.36 46.11Q2.35 43.85 1.18 40.35Q0 36.85 0 32.10Q0 26.40 1.99 22.49Q3.98 18.57 7.31 16.56Q10.65 14.55 14.70 14.55Q17.45 14.55 19.19 15.07Q20.93 15.60 21.96 16.32Q23 17.05 23.65 17.65L20.85 22.90Q19.77 21.72 18.63 21.01Q17.48 20.30 14.95 20.30Q12.40 20.30 10.61 21.77Q8.83 23.25 7.89 25.84Q6.95 28.42 6.95 31.75Q6.95 38.27 9.14 41.59Q11.33 44.90 14.40 44.90Q16.77 44.90 18.45 44.23Q20.13 43.55 20.95 42.70L23.70 47.65Q23 48.23 21.84 48.91Q20.68 49.60 18.81 50.10Q16.95 50.60 14.15 50.60ZM35.25 50L35.25 35.92L24.25 15.15L31.30 15.15L38.63 30.30L45.65 15.15L52.65 15.15L41.65 36.38L41.65 50L35.25 50ZM56.10 50L56.10 15.15L74.30 15.15L74.30 20.65L62.50 20.65L62.50 29.80L72.80 29.80L72.80 35.40L62.50 35.40L62.50 50L56.10 50ZM91.60 50.60Q86.88 50.60 83.64 48.36Q80.40 46.13 78.73 42.08Q77.05 38.02 77.05 32.55Q77.05 27.13 78.70 23.07Q80.35 19.02 83.56 16.79Q86.78 14.55 91.45 14.55Q96.33 14.55 99.56 16.82Q102.80 19.10 104.43 23.15Q106.05 27.20 106.05 32.55Q106.05 38.02 104.38 42.08Q102.70 46.13 99.48 48.36Q96.25 50.60 91.60 50.60M91.60 45.25Q94.88 45.25 97.14 42.09Q99.40 38.92 99.40 32.40Q99.40 26.13 97.29 22.94Q95.18 19.75 91.45 19.75Q87.83 19.75 85.79 22.95Q83.75 26.15 83.75 32.45Q83.75 38.98 85.91 42.11Q88.08 45.25 91.60 45.25ZM135.25 50L127.50 50L118.55 37.40L118.55 50L112.20 50L112.20 15.15L121.90 15.15Q125.45 15.15 128.25 16.19Q131.05 17.23 132.68 19.65Q134.30 22.07 134.30 26.25Q134.30 28.52 133.54 30.94Q132.78 33.35 131.01 35.25Q129.25 37.15 126.25 37.90L135.25 50M118.55 34.25L121.20 34.25Q123.40 34.25 124.89 33.21Q126.38 32.17 127.14 30.49Q127.90 28.80 127.90 26.85Q127.90 23.47 126.35 21.81Q124.80 20.15 121.05 20.15L118.55 20.15L118.55 34.25ZM152.85 50.60Q150.13 50.60 147.60 49.49Q145.07 48.38 143.06 46.11Q141.05 43.85 139.88 40.35Q138.70 36.85 138.70 32.10Q138.70 26.40 140.69 22.49Q142.67 18.57 146.01 16.56Q149.35 14.55 153.40 14.55Q156.15 14.55 157.89 15.07Q159.63 15.60 160.66 16.32Q161.70 17.05 162.35 17.65L159.55 22.90Q158.47 21.72 157.32 21.01Q156.18 20.30 153.65 20.30Q151.10 20.30 149.31 21.77Q147.53 23.25 146.59 25.84Q145.65 28.42 145.65 31.75Q145.65 38.27 147.84 41.59Q150.03 44.90 153.10 44.90Q155.47 44.90 157.15 44.23Q158.82 43.55 159.65 42.70L162.40 47.65Q161.70 48.23 160.54 48.91Q159.38 49.60 157.51 50.10Q155.65 50.60 152.85 50.60ZM167.25 50L167.25 15.15L185.45 15.15L185.45 20.60L173.50 20.60L173.50 28.75L183 28.75L183 34.05L173.50 34.05L173.50 44.35L186.45 44.35L186.45 50L167.25 50Z"/></g></g></g></svg>